<svg xmlns="http://www.w3.org/2000/svg" width="347.53" height="35" viewBox="0 0 347.53 35"><rect width="129.7" height="35" x="0" y="0" fill="#8331F3" class="svg__rect"/><rect width="219.83" height="35" x="127.7" y="0" fill="#5317A6" class="svg__rect"/><path fill="#FFF" d="M15.70 22L14.22 22L14.22 13.47L15.70 13.47L15.70 17.02L19.51 17.02L19.51 13.47L20.99 13.47L20.99 22L19.51 22L19.51 18.21L15.70 18.21L15.70 22ZM27.30 22L25.82 22L25.82 13.47L27.30 13.47L27.30 22ZM39.76 14.66L37.13 14.66L37.13 13.47L43.89 13.47L43.89 14.66L41.23 14.66L41.23 22L39.76 22L39.76 14.66ZM49.13 22L47.65 22L47.65 13.47L49.13 13.47L49.13 17.02L52.95 17.02L52.95 13.47L54.42 13.47L54.42 22L52.95 22L52.95 18.21L49.13 18.21L49.13 22ZM64.74 22L59.16 22L59.16 13.47L64.70 13.47L64.70 14.66L60.65 14.66L60.65 17.02L64.15 17.02L64.15 18.19L60.65 18.19L60.65 20.82L64.74 20.82L64.74 22ZM70.42 22L68.94 22L68.94 13.47L71.94 13.47Q73.41 13.47 74.22 14.13Q75.02 14.79 75.02 16.05L75.02 16.05Q75.02 16.90 74.61 17.48Q74.19 18.06 73.46 18.37L73.46 18.37L75.37 21.92L75.37 22L73.78 22L72.07 18.71L70.42 18.71L70.42 22ZM70.42 14.66L70.42 17.52L71.94 17.52Q72.69 17.52 73.12 17.15Q73.54 16.77 73.54 16.11L73.54 16.11Q73.54 15.43 73.15 15.05Q72.76 14.68 71.98 14.66L71.98 14.66L70.42 14.66ZM84.99 22L79.41 22L79.41 13.47L84.95 13.47L84.95 14.66L80.90 14.66L80.90 17.02L84.40 17.02L84.40 18.19L80.90 18.19L80.90 20.82L84.99 20.82L84.99 22ZM89.25 23.92L88.48 23.46Q88.82 22.93 88.95 22.54Q89.08 22.14 89.08 21.73L89.08 21.73L89.08 20.62L90.37 20.62L90.36 21.65Q90.35 22.27 90.05 22.89Q89.74 23.52 89.25 23.92L89.25 23.92ZM102.35 22L100.88 22L100.88 13.47L102.35 13.47L102.35 22ZM108.64 22L107.16 22L107.16 13.47L109.09 13.47L111.55 20.01L114.00 13.47L115.92 13.47L115.92 22L114.44 22L114.44 19.19L114.59 15.43L112.07 22L111.01 22L108.49 15.43L108.64 19.19L108.64 22Z" class="svg__text"/><path x="140.7" fill="#FFF" d="M141.46 17.80L141.46 17.80Q141.46 16.54 142.06 15.54Q142.66 14.55 143.72 13.99Q144.79 13.43 146.14 13.43L146.14 13.43Q147.31 13.43 148.25 13.83Q149.19 14.22 149.81 14.97L149.81 14.97L148.30 16.33Q147.45 15.40 146.28 15.40L146.28 15.40Q146.26 15.40 146.26 15.40L146.26 15.40Q145.18 15.40 144.52 16.06Q143.86 16.71 143.86 17.80L143.86 17.80Q143.86 18.50 144.16 19.04Q144.46 19.59 145.00 19.89Q145.54 20.20 146.24 20.20L146.24 20.20Q146.92 20.20 147.52 19.93L147.52 19.93L147.52 17.62L149.62 17.62L149.62 21.10Q148.90 21.61 147.96 21.89Q147.03 22.17 146.09 22.17L146.09 22.17Q144.77 22.17 143.71 21.61Q142.66 21.05 142.06 20.05Q141.46 19.06 141.46 17.80ZM154.54 18.26L154.54 18.26L154.54 13.60L156.92 13.60L156.92 18.19Q156.92 20.20 158.51 20.20L158.51 20.20Q160.09 20.20 160.09 18.19L160.09 18.19L160.09 13.60L162.44 13.60L162.44 18.26Q162.44 20.13 161.40 21.15Q160.36 22.17 158.49 22.17L158.49 22.17Q156.61 22.17 155.58 21.15Q154.54 20.13 154.54 18.26ZM166.94 21.24L166.94 21.24L167.72 19.49Q168.28 19.86 169.02 20.09Q169.77 20.32 170.49 20.32L170.49 20.32Q171.85 20.32 171.86 19.64L171.86 19.64Q171.86 19.28 171.47 19.11Q171.08 18.93 170.21 18.74L170.21 18.74Q169.26 18.53 168.63 18.30Q167.99 18.06 167.54 17.55Q167.08 17.03 167.08 16.16L167.08 16.16Q167.08 15.39 167.50 14.77Q167.92 14.15 168.76 13.79Q169.59 13.43 170.80 13.43L170.80 13.43Q171.62 13.43 172.43 13.62Q173.24 13.80 173.85 14.17L173.85 14.17L173.12 15.93Q171.92 15.28 170.79 15.28L170.79 15.28Q170.08 15.28 169.76 15.49Q169.43 15.70 169.43 16.04L169.43 16.04Q169.43 16.37 169.82 16.54Q170.20 16.71 171.05 16.89L171.05 16.89Q172.01 17.10 172.64 17.33Q173.27 17.56 173.73 18.07Q174.20 18.58 174.20 19.46L174.20 19.46Q174.20 20.21 173.78 20.83Q173.36 21.44 172.52 21.80Q171.68 22.17 170.48 22.17L170.48 22.17Q169.46 22.17 168.50 21.92Q167.53 21.67 166.94 21.24ZM180.57 15.48L177.98 15.48L177.98 13.60L185.51 13.60L185.51 15.48L182.94 15.48L182.94 22L180.57 22L180.57 15.48ZM191.29 22L188.87 22L192.58 13.60L194.92 13.60L198.64 22L196.17 22L195.51 20.37L191.96 20.37L191.29 22ZM193.73 15.93L192.65 18.61L194.81 18.61L193.73 15.93ZM205.37 22L201.78 13.60L204.35 13.60L206.63 19.07L208.96 13.60L211.31 13.60L207.71 22L205.37 22ZM215.04 17.80L215.04 17.80Q215.04 16.55 215.64 15.55Q216.24 14.56 217.31 14.00Q218.37 13.43 219.70 13.43L219.70 13.43Q221.03 13.43 222.09 14.00Q223.16 14.56 223.76 15.55Q224.37 16.55 224.37 17.80L224.37 17.80Q224.37 19.05 223.76 20.04Q223.16 21.04 222.10 21.60Q221.04 22.17 219.70 22.17L219.70 22.17Q218.37 22.17 217.31 21.60Q216.24 21.04 215.64 20.04Q215.04 19.05 215.04 17.80ZM217.43 17.80L217.43 17.80Q217.43 18.51 217.73 19.05Q218.04 19.60 218.55 19.90Q219.07 20.20 219.70 20.20L219.70 20.20Q220.34 20.20 220.85 19.90Q221.37 19.60 221.67 19.05Q221.97 18.51 221.97 17.80L221.97 17.80Q221.97 17.09 221.67 16.54Q221.37 16 220.85 15.70Q220.34 15.40 219.70 15.40L219.70 15.40Q219.06 15.40 218.55 15.70Q218.04 16 217.73 16.54Q217.43 17.09 217.43 17.80ZM235.64 17.80L235.64 17.80Q235.64 16.54 236.24 15.54Q236.84 14.55 237.91 13.99Q238.98 13.43 240.32 13.43L240.32 13.43Q241.50 13.43 242.43 13.83Q243.37 14.22 243.99 14.97L243.99 14.97L242.48 16.33Q241.64 15.40 240.46 15.40L240.46 15.40Q240.45 15.40 240.44 15.40L240.44 15.40Q239.36 15.40 238.70 16.06Q238.04 16.71 238.04 17.80L238.04 17.80Q238.04 18.50 238.34 19.04Q238.64 19.59 239.18 19.89Q239.72 20.20 240.42 20.20L240.42 20.20Q241.10 20.20 241.70 19.93L241.70 19.93L241.70 17.62L243.80 17.62L243.80 21.10Q243.08 21.61 242.14 21.89Q241.21 22.17 240.27 22.17L240.27 22.17Q238.95 22.17 237.90 21.61Q236.84 21.05 236.24 20.05Q235.64 19.06 235.64 17.80ZM248.72 18.26L248.72 18.26L248.72 13.60L251.10 13.60L251.10 18.19Q251.10 20.20 252.69 20.20L252.69 20.20Q254.28 20.20 254.28 18.19L254.28 18.19L254.28 13.60L256.62 13.60L256.62 18.26Q256.62 20.13 255.58 21.15Q254.54 22.17 252.67 22.17L252.67 22.17Q250.80 22.17 249.76 21.15Q248.72 20.13 248.72 18.26ZM263.50 15.48L260.92 15.48L260.92 13.60L268.44 13.60L268.44 15.48L265.87 15.48L265.87 22L263.50 22L263.50 15.48ZM275.19 22L272.81 22L272.81 13.60L275.19 13.60L275.19 22ZM287.11 22L280.36 22L280.36 13.60L286.95 13.60L286.95 15.44L282.72 15.44L282.72 16.85L286.45 16.85L286.45 18.63L282.72 18.63L282.72 20.17L287.11 20.17L287.11 22ZM294.29 22L291.91 22L291.91 13.60L295.76 13.60Q296.90 13.60 297.74 13.98Q298.57 14.35 299.03 15.06Q299.49 15.76 299.49 16.71L299.49 16.71Q299.49 17.62 299.06 18.30Q298.63 18.98 297.84 19.36L297.84 19.36L299.65 22L297.11 22L295.59 19.77L294.29 19.77L294.29 22ZM294.29 15.47L294.29 17.93L295.61 17.93Q296.34 17.93 296.71 17.61Q297.09 17.29 297.09 16.71L297.09 16.71Q297.09 16.12 296.71 15.79Q296.34 15.47 295.61 15.47L295.61 15.47L294.29 15.47ZM306.65 22L304.27 22L304.27 13.60L308.12 13.60Q309.26 13.60 310.10 13.98Q310.94 14.35 311.39 15.06Q311.85 15.76 311.85 16.71L311.85 16.71Q311.85 17.62 311.42 18.30Q311.00 18.98 310.20 19.36L310.20 19.36L312.01 22L309.47 22L307.95 19.77L306.65 19.77L306.65 22ZM306.65 15.47L306.65 17.93L307.97 17.93Q308.70 17.93 309.08 17.61Q309.45 17.29 309.45 16.71L309.45 16.71Q309.45 16.12 309.08 15.79Q308.70 15.47 307.97 15.47L307.97 15.47L306.65 15.47ZM323.38 22L316.64 22L316.64 13.60L323.23 13.60L323.23 15.44L318.99 15.44L318.99 16.85L322.73 16.85L322.73 18.63L318.99 18.63L318.99 20.17L323.38 20.17L323.38 22ZM335.29 22L327.77 22L327.77 20.51L332.01 15.48L327.88 15.48L327.88 13.60L335.11 13.60L335.11 15.09L330.88 20.11L335.29 20.11L335.29 22Z" class="svg__text"/></svg>